<svg width="24" height="24" viewBox="0 0 24 24" fill="none" xmlns="http://www.w3.org/2000/svg">
<path d="M1.19995 7.2002H22.8V9.6002H1.19995V7.2002ZM1.19995 20.4002H22.8V22.8002H1.19995V20.4002Z" fill="#5EC0CF"/>
<mask id="mask0_63_552" style="mask-type:luminance" maskUnits="userSpaceOnUse" x="1" y="7" width="22" height="16">
<path d="M1.19995 7.2002H22.8V9.6002H1.19995V7.2002ZM1.19995 20.4002H22.8V22.8002H1.19995V20.4002Z" fill="white"/>
</mask>
<g mask="url(#mask0_63_552)">
<path d="M26.4 -2.3999H-2.40002V26.4001H26.4V-2.3999Z" fill="white"/>
</g>
<path d="M2.4 8.4H21.6V4.8H19.2V2.4H21.6C22.9255 2.4 24 3.47452 24 4.8V21.6C24 22.9255 22.9255 24 21.6 24H2.4C1.07452 24 0 22.9255 0 21.6V4.8C0 3.47452 1.07452 2.4 2.4 2.4H4.8V4.8H2.4V8.4ZM2.4 10.8V21.6H21.6V10.8H2.4ZM8.4 4.8C8.4 5.46274 7.86274 6 7.2 6C6.53726 6 6 5.46274 6 4.8V1.2C6 0.537258 6.53726 0 7.2 0C7.86274 0 8.4 0.537258 8.4 1.2V4.8ZM18 4.8C18 5.46274 17.4627 6 16.8 6C16.1373 6 15.6 5.46274 15.6 4.8V1.2C15.6 0.537258 16.1373 0 16.8 0C17.4627 0 18 0.537258 18 1.2V4.8ZM9.6 2.4H14.4V4.8H9.6V2.4ZM8.4 12H10.8V14.4H8.4V12ZM13.2 12H15.6V14.4H13.2V12ZM18 12H20.4V14.4H18V12ZM3.6 16.8H6V19.2H3.6V16.8ZM8.4 16.8H10.8V19.2H8.4V16.8ZM13.2 16.8H15.6V19.2H13.2V16.8ZM18 16.8H20.4V19.2H18V16.8Z" fill="white"/>
<mask id="mask1_63_552" style="mask-type:luminance" maskUnits="userSpaceOnUse" x="0" y="0" width="24" height="24">
<path d="M2.4 8.4H21.6V4.8H19.2V2.4H21.6C22.9255 2.4 24 3.47452 24 4.8V21.6C24 22.9255 22.9255 24 21.6 24H2.4C1.07452 24 0 22.9255 0 21.6V4.8C0 3.47452 1.07452 2.4 2.4 2.4H4.8V4.8H2.4V8.4ZM2.4 10.8V21.6H21.6V10.8H2.4ZM8.4 4.8C8.4 5.46274 7.86274 6 7.2 6C6.53726 6 6 5.46274 6 4.8V1.2C6 0.537258 6.53726 0 7.2 0C7.86274 0 8.4 0.537258 8.4 1.2V4.8ZM18 4.8C18 5.46274 17.4627 6 16.8 6C16.1373 6 15.6 5.46274 15.6 4.8V1.2C15.6 0.537258 16.1373 0 16.8 0C17.4627 0 18 0.537258 18 1.2V4.8ZM9.6 2.4H14.4V4.8H9.6V2.4ZM8.4 12H10.8V14.4H8.4V12ZM13.2 12H15.6V14.4H13.2V12ZM18 12H20.4V14.4H18V12ZM3.6 16.8H6V19.2H3.6V16.8ZM8.4 16.8H10.8V19.2H8.4V16.8ZM13.2 16.8H15.6V19.2H13.2V16.8ZM18 16.8H20.4V19.2H18V16.8Z" fill="white"/>
</mask>
<g mask="url(#mask1_63_552)">
<path d="M26.4 -2.3999H-2.40002V26.4001H26.4V-2.3999Z" fill="#5EC0CF"/>
</g>
</svg>
