
<svg width="38" height="38" viewBox="0 0 38 38" fill="none" xmlns="http://www.w3.org/2000/svg">
<path d="M18.5581 0C8.3083 0 0 8.3083 0 18.5581C0 28.8079 8.3083 37.1162 18.5581 37.1162C28.8079 37.1162 37.1162 28.8079 37.1162 18.5581C37.1162 8.3083 28.8079 0 18.5581 0ZM18.5581 34.2165C9.90996 34.2165 2.8997 27.2063 2.8997 18.5581C2.8997 9.90996 9.90996 2.8997 18.5581 2.8997C27.2063 2.8997 34.2165 9.90996 34.2165 18.5581C34.2165 27.2063 27.2063 34.2165 18.5581 34.2165Z" fill="white"/>
<path fill-rule="evenodd" clip-rule="evenodd" d="M23.1304 15.6761H19.7788V13.2859C19.7788 12.5527 20.555 12.3827 20.9172 12.3827C21.277 12.3827 23.0822 12.3827 23.0822 12.3827V9.15718L20.6009 9.14453C17.2152 9.14453 16.4425 11.5496 16.4425 13.0917V15.6761H13.9858V18.9993H16.4425C16.4425 23.266 16.4425 27.9716 16.4425 27.9716H19.7788C19.7788 27.9716 19.7788 23.2177 19.7788 18.9993H22.613L23.1304 15.6761Z" fill="white"/>


</svg>
