<svg width="166" height="195" viewBox="0 0 166 195" fill="none" xmlns="http://www.w3.org/2000/svg">
<g clip-path="url(#clip0_63_500)">
<path d="M100.868 87.9458H109.624C118.299 87.9458 126.695 91.7244 126.695 101.976C126.695 112.229 118.342 116.083 109.624 116.083H100.868V87.9458ZM109.704 111.221C115.352 111.221 120.844 109.011 120.844 101.976C120.844 94.9422 115.357 92.7703 109.704 92.7703H106.516V111.221H109.704Z" fill="white"/>
<path d="M131.501 87.9458H153.535V92.648H137.149V99.4419H151.435V103.984H137.149V111.339H153.535V116.083H131.501V87.9458Z" fill="white"/>
<path d="M0.639343 123.582H14.8065C18.7145 123.582 31.7808 123.582 31.7808 136.225C31.7808 140.99 29.85 143.921 27.2715 145.756L32.4709 155.649H19.4089L16.2333 148.594H12.6005V155.649H0.639343V123.582ZM14.5312 139.569C15.6363 139.569 19.5444 139.569 19.5444 136.225C19.5444 132.881 15.9115 133.015 14.5312 133.015H12.6005V139.569H14.5312Z" fill="white"/>
<path d="M35.4601 123.582H63.0577V133.201H47.4171V136.271H60.7543V142.778H47.4171V145.941H63.0577V155.653H35.4601V123.586V123.582Z" fill="white"/>
<path d="M65.9114 139.615C65.9114 129.308 73.2236 123.122 83.851 123.122C86.5185 123.122 90.2445 123.349 94.3388 125.045V135.077C90.706 133.475 88.3603 133.015 85.7352 133.015C80.4469 133.015 78.3764 135.811 78.3764 139.611C78.3764 143.183 80.4469 145.751 84.863 145.751C85.6463 145.751 86.4719 145.658 87.0689 145.338L85.2737 138.51H96.9554V152.115C92.679 155.185 88.4916 156.1 83.8468 156.1C72.9018 156.1 65.9072 149.914 65.9072 139.607L65.9114 139.615Z" fill="white"/>
<path d="M100.868 123.582H128.465V133.201H112.825V136.271H126.162V142.778H112.825V145.941H128.465V155.653H100.868V123.586V123.582Z" fill="white"/>
<path d="M132.606 123.582H147.878L154.5 140.762V123.582H166V155.649H151.05L144.106 137.6V155.649H132.606V123.582Z" fill="white"/>
<path d="M0.110107 162.473H16.3011C22.3727 162.473 29.2276 163.527 29.2276 170.308C29.2276 173.606 27.1572 176.537 22.4193 177.178C27.2969 177.912 30.4216 180.43 30.4216 184.967C30.4216 192.482 23.5244 194.54 16.5763 194.54H0.110107V162.473ZM13.4939 174.888C15.0139 174.888 17.1733 174.749 17.1733 172.459C17.1733 170.169 15.0097 170.03 13.4939 170.03H12.0671V174.888H13.4939ZM13.7691 186.161C15.3781 186.161 17.8635 185.979 17.8635 183.458C17.8635 181.075 15.3781 180.847 13.7691 180.847H12.0671V186.161H13.7691Z" fill="white"/>
<path d="M32.7207 178.506C32.7207 168.794 39.618 162.013 50.7493 162.013C61.8806 162.013 68.7778 168.794 68.7778 178.506C68.7778 188.218 61.8806 195 50.7493 195C39.618 195 32.7207 188.218 32.7207 178.506ZM50.7535 184.145C54.2508 184.145 56.5499 181.762 56.5499 178.51C56.5499 175.259 54.2508 172.876 50.7535 172.876C47.2562 172.876 44.9571 175.259 44.9571 178.51C44.9571 181.762 47.2562 184.145 50.7535 184.145Z" fill="white"/>
<path d="M71.2209 178.506C71.2209 168.794 78.1182 162.013 89.2495 162.013C100.381 162.013 107.278 168.794 107.278 178.506C107.278 188.218 100.381 195 89.2495 195C78.1182 195 71.2209 188.218 71.2209 178.506ZM89.2537 184.145C92.7511 184.145 95.0502 181.762 95.0502 178.51C95.0502 175.259 92.7511 172.876 89.2537 172.876C85.7564 172.876 83.4573 175.259 83.4573 178.51C83.4573 181.762 85.7564 184.145 89.2537 184.145Z" fill="white"/>
<path d="M109.721 178.506C109.721 168.199 117.033 162.013 127.661 162.013C130.328 162.013 134.054 162.24 138.148 163.936V173.969C134.516 172.366 132.17 171.906 129.545 171.906C124.257 171.906 122.186 174.702 122.186 178.502C122.186 182.074 124.257 184.642 128.673 184.642C129.456 184.642 130.282 184.55 130.879 184.229L129.083 177.401H140.765V191.006C136.489 194.076 132.301 194.991 127.657 194.991C116.711 194.991 109.717 188.805 109.717 178.498L109.721 178.506Z" fill="white"/>
<path d="M78.3002 0H76.2679C34.1476 0 0 34.0119 0 75.9648V114.392H37.1749C46.5322 114.392 54.1196 106.835 54.1196 97.5148V81.6032C54.1196 69.4154 64.0357 59.5387 76.2721 59.5387H78.3045C81.751 59.2688 90.109 61.7865 94.8215 67.0327C98.793 71.4523 99.9785 75.8214 100.326 78.3011C100.491 79.4904 101.494 80.3844 102.701 80.3844H154.577V75.969C154.572 34.0119 120.425 0 78.3002 0Z" fill="white"/>
</g>
<defs>
<clipPath id="clip0_63_500">
<rect width="166" height="195" fill="white"/>
</clipPath>
</defs>
</svg>
