<svg width="33" height="33" viewBox="0 0 33 33" fill="none" xmlns="http://www.w3.org/2000/svg">
<path fill-rule="evenodd" clip-rule="evenodd" d="M16.5 13.7487C15.741 13.7487 15.1263 13.1341 15.1263 12.3751C15.1263 11.6161 15.741 11.0015 16.5 11.0015C17.259 11.0015 17.8736 11.6161 17.8736 12.3751C17.8736 13.1341 17.259 13.7487 16.5 13.7487Z" fill="white"/>
<path d="M16.5 31.6263C12.7009 31.6263 5.49866 18.5872 5.49866 12.5977C5.49866 6.60816 10.4198 1.37354 16.5 1.37354C22.5803 1.37354 27.5014 6.40604 27.5014 12.5977C27.5014 18.7893 20.3033 31.6263 16.5 31.6263ZM16.5 28.8749C17.0487 28.8749 19.2143 26.2927 21.1448 22.7988C23.2898 18.9172 24.75 14.8499 24.75 12.5977C24.75 7.91166 21.0499 4.12491 16.5 4.12491C11.9502 4.12491 8.25003 7.91166 8.25003 12.5977C8.25003 17.2837 9.71441 18.9172 11.8553 22.7988C13.7858 26.2927 15.9514 28.8749 16.5 28.8749ZM16.5 17.8735C13.464 17.8735 11.0014 15.4109 11.0014 12.3749C11.0014 9.33891 13.464 6.87629 16.5 6.87629C19.536 6.87629 21.9987 9.33891 21.9987 12.3749C21.9987 15.4109 19.536 17.8735 16.5 17.8735ZM16.5 15.1263C18.018 15.1263 19.2514 13.897 19.2514 12.3749C19.2514 10.8528 18.0222 9.62354 16.5 9.62354C14.9779 9.62354 13.7487 10.8528 13.7487 12.3749C13.7487 13.897 14.9779 15.1263 16.5 15.1263Z" fill="#5EC0CF"/>
</svg>
