<svg width="24" height="24" viewBox="0 0 24 24" fill="none" xmlns="http://www.w3.org/2000/svg">
<path d="M1.11834 6.31173C0.389051 9.80302 3.1381 13.959 6.59063 17.4115C10.0432 20.8641 14.1991 23.6132 17.6904 22.8838C20.5618 22.2841 22.0276 20.7546 22.8525 19.4514C23.1372 19.0016 22.9935 18.4179 22.5668 18.0997L18.5268 15.0861C18.0912 14.7613 17.483 14.8052 17.0988 15.1896L14.9543 17.3339C14.9543 17.3339 12.8699 16.6563 10.1078 13.8944C7.34582 11.1324 6.66825 9.04791 6.66825 9.04791L8.81268 6.90348C9.19698 6.51918 9.24101 5.91107 8.91605 5.47542L5.90248 1.43531C5.58426 1.0087 5.00054 0.865023 4.55085 1.14967C3.24757 1.97462 1.71811 3.44046 1.11834 6.31173Z" stroke="#5EC0CF" stroke-width="2" stroke-linecap="round" stroke-linejoin="round"/>
</svg>
