<svg width="38" height="38" viewBox="0 0 38 38" fill="none" xmlns="http://www.w3.org/2000/svg">
<path d="M18.5581 0C8.30832 0 0 8.30832 0 18.5581C0 28.8079 8.30832 37.1162 18.5581 37.1162C28.8079 37.1162 37.1162 28.8079 37.1162 18.5581C37.1162 8.30832 28.8079 0 18.5581 0ZM18.5581 34.2165C9.90996 34.2165 2.89969 27.2063 2.89969 18.5581C2.89969 9.90996 9.90996 2.89969 18.5581 2.89969C27.2063 2.89969 34.2165 9.90996 34.2165 18.5581C34.2165 27.2063 27.2063 34.2165 18.5581 34.2165Z" fill="white"/>
<path d="M25.001 10.2207C22.6075 10.2207 20.7355 11.7887 19.9254 14.7397C20.8079 14.3162 22.4099 14.0953 22.5351 15.5702C22.6616 17.0462 20.4472 20.8638 19.475 20.8638C18.5052 20.8638 17.7835 16.5473 17.5308 14.5746C17.2802 12.5995 16.8298 10.4244 14.9946 10.4244C13.1572 10.4244 10.8015 13.3393 9.14453 14.6676L10.0087 15.8645C10.0087 15.8645 11.2314 14.8886 11.6646 14.9619C12.7803 15.2562 13.7341 19.8496 14.2213 21.6013C14.7062 23.3542 15.2992 26.8961 17.6939 26.8961C21.5642 26.8961 27.9716 17.1755 27.9716 14.0023C27.9715 11.9178 27.3947 10.2207 25.001 10.2207Z" fill="white"/>
</svg>
