<svg width="38" height="38" viewBox="0 0 38 38" fill="none" xmlns="http://www.w3.org/2000/svg">
<path d="M18.5531 0C8.30542 0 0 8.30542 0 18.5531C0 28.8008 8.30542 37.1063 18.5531 37.1063C28.8008 37.1063 37.1063 28.8008 37.1063 18.5531C37.1063 8.30542 28.8008 0 18.5531 0ZM27.8297 21.8724C27.8297 25.0685 24.6336 25.0685 24.6336 25.0685H12.4726C9.27656 25.0685 9.27656 21.8724 9.27656 21.8724V15.2411C9.27656 12.045 12.4726 12.045 12.4726 12.045H24.6336C27.8297 12.045 27.8297 15.2411 27.8297 15.2411V21.8724Z" fill="white"/>
<path d="M16 22.1314L22.0732 18.5657L16 15V22.1314Z" fill="white"/>
</svg>
